<?xml version="1.0" standalone="no"?>
<!DOCTYPE svg PUBLIC "-//W3C//DTD SVG 20010904//EN"
 "http://www.w3.org/TR/2001/REC-SVG-20010904/DTD/svg10.dtd">
<svg version="1.0" xmlns="http://www.w3.org/2000/svg"
 width="340.000000pt" height="340.000000pt" viewBox="0 0 340.000000 340.000000"
 preserveAspectRatio="xMidYMid meet">
<metadata>
Created by potrace 1.11, written by Peter Selinger 2001-2013
</metadata>
<g transform="translate(0.000000,340.000000) scale(0.100000,-0.100000)"
fill="#000000" stroke="none">
<path d="M1828 3395 c-2 -1 -28 -6 -58 -9 -51 -6 -68 -9 -132 -20 -66 -12
-204 -52 -281 -82 -314 -121 -597 -328 -795 -584 -37 -47 -69 -87 -72 -90 -9
-8 -92 -146 -134 -222 -48 -88 -116 -259 -151 -378 -28 -100 -29 -102 -45
-190 -6 -30 -12 -66 -15 -80 -23 -115 -26 -487 -6 -620 98 -643 486 -1035
1096 -1109 76 -9 368 -7 425 4 19 3 44 8 55 10 76 12 110 20 188 41 623 172
1124 687 1306 1344 33 118 39 147 57 269 4 25 9 55 11 66 9 39 11 391 2 460
-4 39 -11 88 -14 110 -10 79 -57 249 -94 339 -160 392 -476 645 -901 722 -81
14 -430 30 -442 19z m217 -580 c278 -46 462 -222 541 -515 9 -30 17 -66 19
-80 33 -208 31 -384 -10 -620 -17 -98 -63 -243 -119 -372 -48 -111 -172 -288
-261 -371 -196 -186 -418 -276 -686 -279 -398 -4 -649 211 -726 622 -20 108
-24 333 -9 465 66 560 378 993 806 1121 123 36 324 50 445 29z"/>
<path d="M1742 2295 c-17 -22 -124 -196 -474 -773 -60 -97 -108 -182 -108
-188 0 -5 6 -19 14 -30 14 -18 31 -19 501 -19 539 -1 533 -2 521 59 -4 17 -56
157 -117 311 -61 154 -142 360 -181 458 -38 97 -76 184 -85 192 -21 22 -49 18
-71 -10z"/>
</g>
</svg>
