<?xml version="1.0" encoding="UTF-8"?>
<svg width="1948px" height="235px" viewBox="0 0 1948 235" version="1.1" xmlns="http://www.w3.org/2000/svg" xmlns:xlink="http://www.w3.org/1999/xlink">
    <!-- Generator: Sketch 48.2 (47327) - http://www.bohemiancoding.com/sketch -->
    <title>@2xOkra Clubfinder</title>
    <desc>Created with Sketch.</desc>
    <defs>
        <filter x="-0.5%" y="-2.5%" width="101.0%" height="105.8%" filterUnits="objectBoundingBox" id="filter-1">
            <feOffset dx="0" dy="1" in="SourceAlpha" result="shadowOffsetOuter1"></feOffset>
            <feGaussianBlur stdDeviation="2" in="shadowOffsetOuter1" result="shadowBlurOuter1"></feGaussianBlur>
            <feColorMatrix values="0 0 0 0 0   0 0 0 0 0   0 0 0 0 0  0 0 0 0.3 0" type="matrix" in="shadowBlurOuter1" result="shadowMatrixOuter1"></feColorMatrix>
            <feMerge>
                <feMergeNode in="shadowMatrixOuter1"></feMergeNode>
                <feMergeNode in="SourceGraphic"></feMergeNode>
            </feMerge>
        </filter>
        <linearGradient x1="50%" y1="1.67610013%" x2="50%" y2="97.5838375%" id="linearGradient-2">
            <stop stop-color="#0AAD5F" offset="0%"></stop>
            <stop stop-color="#007A43" offset="100%"></stop>
        </linearGradient>
    </defs>
    <g id="Logos" stroke="none" stroke-width="1" fill="none" fill-rule="evenodd">
        <g id="Okra-Clubfinder" transform="translate(-12.000000, -63.000000)">
            <g id="Group" filter="url(#filter-1)" stroke-width="1" transform="translate(665.198376, 70.346154)">
                <path d="M81.6400464,221.912615 C31.9476845,221.912615 0.853633411,189.380923 0.853633411,134.483692 C0.853633411,62.7396923 53.74258,10.4566154 118.54607,10.4566154 C137.725578,10.4566154 158.358079,15.104 171.435016,22.3655385 L160.973466,57.8018462 C149.349522,52.5735385 132.494803,46.1833846 113.605893,46.1833846 C66.2383202,46.1833846 41.8280371,85.6861538 41.8280371,130.998154 C41.8280371,163.820308 54.6143759,186.185846 89.1956102,186.185846 C105.759731,186.185846 124.067443,180.957538 140.340965,174.567385 L138.306775,210.003692 C122.61445,217.265231 100.238357,221.912615 81.6400464,221.912615 Z M219.383787,191.123692 L210.956427,220.750769 L197.87949,220.750769 C176.95639,220.750769 167.947833,208.551385 167.947833,191.995077 C167.947833,189.090462 168.238432,185.895385 201.076074,0 L237.110302,0 C206.306849,174.567385 205.725652,179.214769 205.725652,182.119385 C205.725652,191.123692 210.956427,191.123692 219.383787,191.123692 Z M360.324111,217.846154 L326.324074,217.846154 L327.486469,209.132308 C316.443722,216.393846 307.144566,220.750769 292.324037,220.750769 C260.648789,220.750769 245.537661,201.289846 245.537661,171.081846 C245.537661,165.272615 246.118858,158.301538 261.229986,72.6153846 L297.264213,72.6153846 C282.443684,157.139692 282.153086,162.948923 282.153086,166.144 C282.153086,182.990769 289.418051,190.542769 303.657383,190.542769 C314.70013,190.542769 323.418088,186.185846 330.973652,178.343385 L349.862561,72.6153846 L385.896789,72.6153846 L360.324111,217.846154 Z M461.452427,220.750769 C445.469503,220.750769 438.785735,216.684308 430.358376,209.713231 L428.614784,217.846154 L394.614747,217.846154 L432.973763,0 L469.298589,0 L455.059258,79.8769231 C464.649012,73.7772308 473.36697,70.2916923 487.606302,70.2916923 C527.127712,70.2916923 545.435425,97.3046154 545.435425,132.16 C545.435425,176.891077 514.922571,220.750769 461.452427,220.750769 Z M479.760139,99.9187692 C448.956687,99.9187692 440.238729,133.612308 440.238729,158.011077 C440.238729,178.343385 446.341299,191.123692 464.93961,191.123692 C491.093485,191.123692 508.238803,165.563077 508.238803,135.645538 C508.238803,114.441846 499.811443,99.9187692 479.760139,99.9187692 Z M650.050923,102.242462 L620.119267,102.242462 L599.777364,217.846154 L563.743137,217.846154 L584.085039,102.242462 L564.905531,102.242462 L573.332891,72.6153846 L589.315814,72.6153846 L595.418385,38.0504615 C598.61497,19.1704615 609.367118,0 642.49536,0 C649.469726,0 659.350079,0.871384615 667.777439,1.74276923 L659.350079,31.6603077 C652.95691,30.4984615 650.922719,30.208 647.726135,30.208 C634.068,30.208 632.03381,35.1458462 628.837225,52.864 L625.350042,72.6153846 L655.281698,72.6153846 L650.050923,102.242462 Z M688.991137,217.846154 L652.95691,217.846154 L678.529587,72.6153846 L714.563814,72.6153846 L688.991137,217.846154 Z M846.495582,217.846154 L810.170756,217.846154 C824.991285,133.612308 825.281884,128.093538 825.281884,124.317538 C825.281884,107.470769 819.179313,99.9187692 804.649383,99.9187692 C793.606636,99.9187692 785.760473,104.566154 777.914311,112.408615 L759.316,217.846154 L723.281773,217.846154 L748.85445,72.6153846 L780.529698,72.6153846 L781.982691,81.3292308 C791.281847,74.6486154 800.290404,70.2916923 815.401531,70.2916923 C846.786181,70.2916923 862.187907,89.4621538 862.187907,119.379692 C862.187907,125.188923 861.60671,132.16 846.495582,217.846154 Z M1007.77781,217.846154 L973.487174,217.846154 L974.649568,209.713231 C963.606821,216.684308 955.47006,220.750769 940.068334,220.750769 C900.546923,220.750769 882.239211,193.737846 882.239211,159.172923 C882.239211,114.151385 913.623861,70.2916923 966.222209,70.2916923 C981.042738,70.2916923 988.598302,73.7772308 995.863267,79.8769231 L1010.1026,0 L1046.13683,0 L1007.77781,217.846154 Z M963.025624,99.9187692 C937.162348,99.9187692 919.726432,125.188923 919.726432,155.687385 C919.726432,176.891077 928.153791,191.123692 948.205095,191.123692 C980.461541,191.123692 987.435907,155.106462 987.435907,133.031385 C987.435907,112.699077 981.623935,99.9187692 963.025624,99.9187692 Z M1174.58141,112.408615 C1174.58141,147.844923 1141.45317,160.044308 1105.12834,160.044308 C1095.53859,160.044308 1086.82063,159.172923 1083.04285,158.301538 C1084.49584,182.409846 1100.47877,191.123692 1116.46169,191.123692 C1129.53863,191.123692 1149.58993,185.604923 1162.08567,179.214769 L1158.01729,209.713231 C1146.39335,215.522462 1128.66683,220.750769 1109.48732,220.750769 C1065.31633,220.750769 1045.26503,193.156923 1045.26503,158.301538 C1045.26503,113.860923 1077.52148,70.2916923 1127.21384,70.2916923 C1158.01729,70.2916923 1174.58141,87.1384615 1174.58141,112.408615 Z M1125.76084,99.9187692 C1103.09415,99.9187692 1089.72662,121.993846 1085.94884,135.355077 C1089.43602,136.226462 1093.795,136.516923 1099.31637,136.516923 C1134.7694,136.516923 1144.35916,125.188923 1144.35916,114.151385 C1144.35916,101.080615 1130.99162,99.9187692 1125.76084,99.9187692 Z M1290.53026,70.2916923 L1277.74392,104.275692 L1264.08578,104.275692 C1252.75244,104.275692 1242.29089,110.665846 1237.35071,118.798769 L1219.62419,217.846154 L1183.88057,217.846154 L1209.45324,72.6153846 L1243.74388,72.6153846 L1241.41909,88.0098462 C1248.68406,80.1673846 1264.37638,70.2916923 1280.3593,70.2916923 L1290.53026,70.2916923 Z" id="Clubfinder" fill="#34453C"></path>
                <path d="M707.751897,8.6705538 L726.988285,53.5242219 C727.488957,54.6916442 726.94845,56.043902 725.781027,56.5445743 C725.494582,56.6674221 725.186157,56.7307692 724.87448,56.7307692 L677.867126,56.7307692 C676.596871,56.7307692 675.567126,55.7010242 675.567126,54.4307692 C675.567126,54.0302734 675.671703,53.6367189 675.870509,53.2890508 L701.586264,8.31779711 C702.532095,6.66374554 704.639716,6.08961897 706.293767,7.03544953 C706.944552,7.4075855 707.456414,7.98157231 707.751897,8.6705538 Z" id="Triangle" fill="#008542"></path>
            </g>
            <path d="M93.2821531,285.451077 C43.5897912,285.451077 12.2051415,252.628923 12.2051415,198.022154 C12.2051415,126.859077 65.3846868,73.9950769 128.153986,73.9950769 C177.846348,73.9950769 209.230998,106.817231 209.230998,161.424 C209.230998,232.587077 156.051452,285.451077 93.2821531,285.451077 Z M122.051415,109.721846 C78.7522227,109.721846 53.1795452,150.386462 53.1795452,194.827077 C53.1795452,228.520615 67.7094756,249.724308 99.0941253,249.724308 C142.393318,249.724308 167.965995,209.059692 167.965995,164.619077 C167.965995,130.925538 153.436065,109.721846 122.051415,109.721846 Z M251.948993,281.384615 L215.914766,281.384615 L254.273782,63.5384615 L290.598608,63.5384615 L267.060121,195.698462 L321.111462,136.153846 L361.504668,136.153846 L299.025968,205.864615 L335.641392,281.384615 L295.248186,281.384615 L263.282339,216.902154 L251.948993,281.384615 Z M462.051787,133.830154 L449.265448,167.814154 L435.607313,167.814154 C424.273968,167.814154 413.812418,174.204308 408.872241,182.337231 L391.145726,281.384615 L355.402097,281.384615 L380.974775,136.153846 L415.265411,136.153846 L412.940622,151.548308 C420.205587,143.705846 435.897912,133.830154 451.880835,133.830154 L462.051787,133.830154 Z M606.188696,136.153846 L589.333977,235.491692 C588.462181,240.429538 588.171582,244.205538 588.171582,246.529231 C588.171582,254.662154 591.658766,254.662154 602.410914,254.662154 L594.274153,284.289231 C564.633095,284.289231 559.111722,281.384615 551.846756,267.442462 C543.419397,275.284923 530.633058,284.289231 510.291155,284.289231 C475.709921,284.289231 455.368019,257.857231 455.368019,222.130462 C455.368019,177.689846 486.752668,133.830154 539.351016,133.830154 C554.171545,133.830154 561.727109,137.315692 568.992074,143.415385 L573.060455,136.153846 L606.188696,136.153846 Z M536.154432,163.457231 C510.291155,163.457231 492.855239,188.727385 492.855239,219.225846 C492.855239,240.429538 501.282599,254.662154 521.333903,254.662154 C553.590348,254.662154 560.564715,218.644923 560.564715,196.569846 C560.564715,176.237538 554.752742,163.457231 536.154432,163.457231 Z" id="Okra" fill="url(#linearGradient-2)"></path>
        </g>
    </g>
</svg>